<svg id="Capa_1" enable-background="new 0 0 497 497" height="512" viewBox="0 0 497 497" width="512" xmlns="http://www.w3.org/2000/svg"><g><path d="m149.184 347.816-42.38 26.632-11.81 27.559c-11.108 11.108-11.108 29.117 0 40.225 11.108 11.108 29.117 11.108 40.225 0l54.191-54.191z" fill="#5c586f"/><path d="m108.959 307.592-54.191 54.191c-11.108 11.108-11.108 29.117 0 40.225 11.108 11.108 29.117 11.108 40.225 0l54.191-54.191z" fill="#6a647f"/><path d="m431.235 369.708c-2.095-11.832-13.279-19.847-25.128-17.853-21.702 3.652-61.945-.241-114.297-52.592l-88.273 88.273c36.789 8.387 50.27 31.45 55.194 48.044 2.803 9.447 11.597 15.952 21.44 15.488 31.047-1.463 45.499 16.801 52.189 32.818 5.008 11.988 19.581 16.707 30.792 10.142 70.18-41.101 73.433-94.103 68.083-124.32z" fill="#bc9bdd"/><path d="m145.144 90.894c1.994-11.849-6.021-23.033-17.853-25.128-30.216-5.35-83.219-2.097-124.319 68.084-6.565 11.211-1.846 25.784 10.142 30.792 16.017 6.691 34.281 21.143 32.818 52.189-.464 9.843 6.041 18.637 15.488 21.44 16.594 4.924 39.657 18.404 48.044 55.194l88.273-88.273c-52.352-52.353-56.245-92.596-52.593-114.298z" fill="#bc9bdd"/><circle cx="197.774" cy="299.226" fill="#4f4c5f" r="105.353"/><path d="m366.366 1.96c-9.273-1.523-20.998-2.552-33.81-1.58l-37.07 80.609 60.72 2.066s21.041-22.056 28.483-53.721c2.975-12.682-5.462-25.265-18.323-27.374z" fill="#6a647f"/><path d="m495.04 130.634c-2.109-12.862-14.692-21.298-27.375-18.324-31.665 7.443-53.721 28.483-53.721 28.483l2.066 60.72 80.609-37.07c.974-12.811-.056-24.536-1.579-33.809z" fill="#6a647f"/><path d="m438.673 123.537c-15.329 8.295-24.728 17.257-24.728 17.257l2.066 60.72 42.558-19.571c-2.989-20.265-9.62-40.089-19.896-58.406z" fill="#4f4c5f"/><path d="m373.492 58.275c-18.017-10.152-37.746-16.911-58.39-19.941l-19.615 42.654 60.72 2.066c-.001.001 8.982-9.418 17.285-24.779z" fill="#4f4c5f"/><g fill="#bc9bdd"><path d="m332.556.379c-34.045 2.56-75.841 19.26-100.185 78.45l63.115 2.159c2.724-2.209 5.362-4.576 7.893-7.107 20.233-20.231 29.964-46.992 29.177-73.502z"/><path d="m423.118 193.621c-2.531 2.531-4.897 5.169-7.107 7.893l2.159 63.115c59.19-24.344 75.891-66.139 78.45-100.185-26.509-.786-53.27 8.944-73.502 29.177z"/><circle cx="193.485" cy="303.515" r="58.257"/></g><path d="m416.011 201.514 2.159 63.115c15.678-6.448 28.374-14.121 38.617-22.55 4.851-23.262 4.82-47.345-.098-70.596-12.222 4.87-23.679 12.245-33.572 22.138-2.53 2.53-4.897 5.169-7.106 7.893z" fill="#b08bd7"/><path d="m289.981 36.507c-11.885 0-23.581 1.219-34.954 3.576-8.47 10.265-16.18 23.002-22.656 38.746l63.115 2.159c2.724-2.209 5.362-4.576 7.893-7.106 9.919-9.919 17.308-21.41 22.177-33.668-11.568-2.442-23.473-3.707-35.575-3.707z" fill="#b08bd7"/><path d="m389.338 107.662c-54.873-54.873-143.84-54.873-198.713 0s-33.425 122.392 21.448 177.265 122.392 76.321 177.265 21.448 54.873-143.84 0-198.713z" fill="#6a647f"/><g><path d="m290.996 417.455c-2.806-3.047-2.611-7.791.436-10.598 17.41-16.035 19.164-34.192 19.18-34.373.356-4.127 3.991-7.183 8.118-6.826 4.127.356 7.183 3.991 6.827 8.118-.084.978-2.319 24.18-23.963 44.115-3.066 2.824-7.814 2.592-10.598-.436z" fill="#b08bd7"/></g><g><path d="m350.845 433.298c12.875-19.49 10.379-37.834 10.353-38.017-.596-4.082 2.214-7.901 6.292-8.52 4.079-.619 7.887 2.149 8.531 6.224.153.97 3.559 24.028-12.66 48.58-2.283 3.456-6.936 4.407-10.392 2.124-3.455-2.282-4.408-6.934-2.124-10.391z" fill="#b08bd7"/></g><g><path d="m79.109 195.406c19.935-21.643 43.137-23.878 44.115-23.962 4.126-.357 7.761 2.699 8.118 6.826.355 4.114-2.681 7.739-6.789 8.115-.375.039-18.671 2.094-34.411 19.183-2.806 3.047-7.551 3.242-10.598.436-3.032-2.789-3.255-7.537-.435-10.598z" fill="#b08bd7"/></g><g><path d="m53.31 144.031c-2.283-3.456-1.332-8.109 2.124-10.392 24.552-16.219 47.611-12.813 48.581-12.66 4.092.646 6.885 4.486 6.24 8.577-.646 4.091-4.486 6.885-8.577 6.24-.141-.02-18.486-2.516-37.975 10.359-3.456 2.282-8.108 1.333-10.393-2.124z" fill="#b08bd7"/></g><path d="m353.737 81.774c-52.771-26.876-118.971-18.253-163.113 25.889-42.627 42.627-39.19 92.884-9.813 138.917 13.558-101.46 72.49-155.328 172.926-164.806z" fill="#5c586f"/><ellipse cx="206.235" cy="170.921" fill="#ff9db0" rx="24.901" ry="31.268" transform="matrix(.707 -.707 .707 .707 -60.455 195.891)"/><ellipse cx="326.079" cy="290.765" fill="#ff9db0" rx="24.901" ry="31.268" transform="matrix(.707 -.707 .707 .707 -110.096 315.737)"/><g fill="#423e4f"><path d="m271.102 151.081-12.902-18.426c-2.372-3.389-7.052-4.218-10.445-1.842s-4.218 7.052-1.842 10.446l12.902 18.427c.257.366.54.703.846 1.009 2.525 2.525 6.573 2.953 9.6.833 3.393-2.377 4.217-7.054 1.841-10.447z"/><path d="m366.187 249.245c2.376-3.393 1.553-8.069-1.842-10.445l-18.427-12.902c-3.393-2.376-8.07-1.551-10.446 1.842-2.119 3.027-1.692 7.075.833 9.6.306.306.642.589 1.009.846l18.427 12.902c3.393 2.375 8.07 1.55 10.446-1.843z"/><path d="m308.535 231.343c-2.929-2.929-7.678-2.929-10.607 0-2.986 2.986-7.845 2.986-10.832 0s-2.987-7.846 0-10.832c2.929-2.929 2.929-7.678 0-10.607s-7.678-2.929-10.607 0c-2.986 2.986-7.846 2.986-10.832 0-2.987-2.987-2.987-7.846 0-10.832 2.929-2.929 2.929-7.678 0-10.607s-7.678-2.929-10.607 0c-8.835 8.835-8.835 23.21 0 32.045 4.118 4.118 9.441 6.315 14.845 6.594.279 5.404 2.475 10.727 6.594 14.845 8.835 8.835 23.211 8.835 32.045 0 2.93-2.929 2.93-7.677.001-10.606z"/><path d="m250.342 152.586c-2.929-2.929-7.678-2.929-10.607 0l-8.899 8.899c-2.929 2.929-2.929 7.678 0 10.607s7.678 2.929 10.607 0l8.899-8.899c2.929-2.93 2.929-7.678 0-10.607z"/><path d="m344.415 246.658c-2.929-2.929-7.678-2.929-10.607 0l-8.899 8.899c-2.929 2.929-2.929 7.678 0 10.607s7.678 2.929 10.607 0l8.899-8.899c2.929-2.929 2.929-7.678 0-10.607z"/></g></g></svg>