<svg id="Capa_1" enable-background="new 0 0 497 497" height="512" viewBox="0 0 497 497" width="512" xmlns="http://www.w3.org/2000/svg"><g><path d="m248.5 202.92c-96.651 0-175.001 66.958-175.001 163.608 0 47.1 38.182 85.282 85.282 85.282h3.096c6.607 0 11.964 5.356 11.964 11.964 0 18.35 14.876 33.226 33.226 33.226h8.45l6.562-6.765 8.438 6.765h35.966l6.727-6.765 8.273 6.765h8.451c18.35 0 33.225-14.876 33.225-33.226 0-6.607 5.356-11.964 11.964-11.964h3.096c47.1 0 85.282-38.182 85.282-85.282 0-96.65-78.351-163.608-175.001-163.608z" fill="#e8e8e8"/><path d="m267.577 8.177c-10.429-10.902-27.725-10.902-38.154 0-10.464 10.938-16.894 25.765-16.894 42.099 0 .885.019 1.765.056 2.64 1.946 45.619 69.883 45.619 71.829 0 .037-.875.056-1.756.056-2.64.001-16.334-6.429-31.161-16.893-42.099z" fill="#f9d888"/><path d="m248.5 71.593c-8.851-5.482-15.333-15.038-15.915-28.677-.037-.875-.056-1.755-.056-2.64 0-15.437 5.748-29.523 15.211-40.257-6.676.192-13.293 2.906-18.317 8.158-10.464 10.938-16.894 25.765-16.894 42.1 0 .885.019 1.765.056 2.64.973 22.812 18.444 34.21 35.915 34.206z" fill="#f5c956"/><g><path d="m248.5 146.638c-4.143 0-7.5-3.358-7.5-7.5v-85.644c0-4.142 3.357-7.5 7.5-7.5s7.5 3.358 7.5 7.5v85.644c0 4.142-3.357 7.5-7.5 7.5z" fill="#423e4f"/></g><g><g fill="#423e4f"><path d="m230.517 497v-42.545c0-4.142-3.357-7.5-7.5-7.5s-7.5 3.358-7.5 7.5v42.545z"/><path d="m281.483 497v-42.545c0-4.142-3.357-7.5-7.5-7.5s-7.5 3.358-7.5 7.5v42.545z"/></g></g><g><g><path d="m161.032 417.47c-4.143 0-7.5-3.358-7.5-7.5v-16.808c0-4.142 3.357-7.5 7.5-7.5s7.5 3.358 7.5 7.5v16.808c0 4.143-3.358 7.5-7.5 7.5z" fill="#423e4f"/></g><g><path d="m335.968 417.47c-4.143 0-7.5-3.358-7.5-7.5v-16.808c0-4.142 3.357-7.5 7.5-7.5s7.5 3.358 7.5 7.5v16.808c0 4.143-3.357 7.5-7.5 7.5z" fill="#423e4f"/></g></g><path d="m115.366 375.313c0-88.958 67.417-162.164 153.944-171.33-6.825-.697-13.768-1.063-20.811-1.063-96.65 0-175.001 66.958-175.001 163.608 0 37.38 24.059 69.121 57.529 80.639-10.048-21.872-15.661-46.206-15.661-71.854z" fill="#e0e0e0"/><path d="m330.646 199.685c-9.197-12.393-19.849-31.513-27.59-59.726-3.387-12.346-14.53-20.96-27.333-20.96h-54.446c-12.803 0-23.945 8.614-27.333 20.96-7.741 28.213-18.393 47.333-27.59 59.726-12.667 17.069-19.313 37.86-19.313 59.116v17.404c0 11.946 9.684 21.63 21.63 21.63 11.946 0 21.63-9.684 21.63-21.63v-17.23c0-10.098 8.186-18.285 18.285-18.285 10.098 0 18.285 8.186 18.285 18.285v56.862c0 11.946 9.684 21.63 21.63 21.63 11.946 0 21.63-9.684 21.63-21.63v-37.047c0-10.098 8.186-18.285 18.285-18.285 10.098 0 18.285 8.186 18.285 18.285v27.138c0 11.946 9.684 21.63 21.63 21.63 11.946 0 21.63-9.684 21.63-21.63v-47.127c-.002-21.256-6.648-42.048-19.315-59.116z" fill="#ff748f"/><path d="m265.1 414.822-8.603-13.776c-3.692-5.912-12.302-5.912-15.994 0l-8.603 13.776c-3.922 6.28.593 14.422 7.997 14.422h17.205c7.405.001 11.919-8.142 7.998-14.422z" fill="#423e4f"/><path d="m201.405 238.202c0-71.414 27.166-104.732 56.474-119.203h-36.603c-12.803 0-23.945 8.613-27.333 20.96-7.741 28.212-18.393 47.333-27.59 59.726-12.667 17.069-19.313 37.86-19.313 59.116v17.404c0 11.946 9.684 21.629 21.63 21.629 11.946 0 21.63-9.684 21.63-21.629v-17.23c0-7.576 4.608-14.076 11.174-16.85-.041-1.304-.069-2.61-.069-3.923z" fill="#fd5f7e"/></g></svg>