<svg id="Capa_1" enable-background="new 0 0 497 497" height="512" viewBox="0 0 497 497" width="512" xmlns="http://www.w3.org/2000/svg"><g><path d="m254.516 0h-149.207c-25.702 0-40.205 29.524-24.48 49.854 6.129 7.925 13.695 16.62 23.031 25.955h.001c-23.202 31.22-36.935 69.896-36.935 111.782v182.927c0 28.038-3.66 55.889-10.837 82.858-5.858 22.006 10.538 43.624 33.31 43.624h288.275c24.613 0 46.078-16.5 52.669-40.214 7.789-28.028 11.765-57.046 11.765-86.268v-182.927c-.001-103.604-83.988-187.591-187.592-187.591z" fill="#5c586f"/><path d="m103.59 292.429c0-122.008 78.427-229.214 177.854-290.498-8.795-1.263-17.783-1.931-26.928-1.931h-149.207c-25.702 0-40.205 29.524-24.48 49.854 6.129 7.924 13.695 16.62 23.031 25.955h.001c-23.202 31.22-36.935 69.896-36.935 111.782v182.927c0 28.038-3.66 55.889-10.837 82.858-5.858 22.006 10.538 43.624 33.31 43.624h69.513c-37.341-57.227-55.322-127.976-55.322-204.571z" fill="#4f4c5f"/><path d="m254.516 51.995c-83.206 0-150.657 57.643-150.657 140.849 0 40.548 32.871 73.419 73.419 73.419h2.665c5.688 0 10.3 4.611 10.3 10.3 0 15.797 12.806 28.604 28.604 28.604h6.231l7.5-3.855 7.5 3.855h28.877l7.5-3.855 7.5 3.855h6.231c15.797 0 28.604-12.806 28.604-28.604 0-5.688 4.611-10.3 10.3-10.3h2.665c40.548 0 73.419-32.871 73.419-73.419-.001-83.206-67.452-140.849-150.658-140.849z" fill="#e8e8e8"/><g><g><path d="m225.078 305.166v-36.627c0-4.142 3.357-7.5 7.5-7.5s7.5 3.358 7.5 7.5v36.627z" fill="#423e4f"/></g><g><path d="m268.954 305.166v-36.627c0-4.142 3.357-7.5 7.5-7.5s7.5 3.358 7.5 7.5v36.627z" fill="#423e4f"/></g></g><g><g><path d="m179.216 237.743c-4.143 0-7.5-3.358-7.5-7.5v-14.47c0-4.142 3.357-7.5 7.5-7.5s7.5 3.358 7.5 7.5v14.47c0 4.142-3.357 7.5-7.5 7.5z" fill="#423e4f"/></g><g><path d="m329.817 237.743c-4.143 0-7.5-3.358-7.5-7.5v-14.47c0-4.142 3.357-7.5 7.5-7.5s7.5 3.358 7.5 7.5v14.47c0 4.142-3.358 7.5-7.5 7.5z" fill="#423e4f"/></g></g><path d="m317.589 339.773-3.36-2.404c-7.165-5.126-16.763-5.057-23.946.043-7.136 5.066-16.703 5.052-23.824-.043-7.142-5.109-16.743-5.109-23.885 0-7.122 5.095-16.689 5.109-23.824.043-7.183-5.1-16.781-5.169-23.946-.043l-3.36 2.404c-5.386 3.854-8.582 10.07-8.582 16.693v72.917c0 18.033 14.619 32.652 32.652 32.652h78.006c18.033 0 32.652-14.619 32.652-32.652v-72.917c0-6.623-3.196-12.84-8.583-16.693z" fill="#bc9bdd"/><path d="m324.97 356.451h20.831c13.879 0 25.131 11.252 25.131 25.131 0 13.879-11.252 25.131-25.131 25.131h-20.831c-13.88 0-25.131-11.252-25.131-25.131-.001-13.879 11.251-25.131 25.131-25.131z" fill="#e8e8e8"/><path d="m224.207 380.656c0-13.936 2.633-27.256 7.425-39.493-4.492.219-9.039-1.022-12.882-3.75-7.183-5.1-16.781-5.169-23.946-.043l-3.36 2.404c-5.386 3.854-8.582 10.07-8.582 16.693v72.917c0 18.034 14.619 32.652 32.652 32.652h45.51c-22.57-19.86-36.817-48.954-36.817-81.38z" fill="#b08bd7"/><path d="m184.063 356.451h-20.831c-13.879 0-25.131 11.252-25.131 25.131 0 13.879 11.252 25.131 25.131 25.131h20.831c13.88 0 25.131-11.252 25.131-25.131 0-13.879-11.252-25.131-25.131-25.131z" fill="#e8e8e8"/><path d="m209.844 57.83c-61.394 16.611-105.985 67.362-105.985 135.014 0 11.726 2.763 22.802 7.652 32.635 15.22-64.014 51.265-121.67 98.333-167.649z" fill="#e0e0e0"/></g></svg>